<svg width="43" height="42" viewBox="0 0 43 42" fill="none" xmlns="http://www.w3.org/2000/svg">
  <path opacity="0.05" fill-rule="evenodd" clip-rule="evenodd" d="M31.5 1.99805H11.5C9.37497 1.99805 7.42196 2.73453 5.88228 3.96617L15.1712 13.2551C16.8951 11.8444 19.0987 10.998 21.5 10.998C23.9013 10.998 26.1048 11.8444 27.8287 13.2551L37.1177 3.96613C35.578 2.73451 33.625 1.99805 31.5 1.99805Z" fill="#2EF2FF"/>
  <path fill-rule="evenodd" clip-rule="evenodd" d="M13 16H30C30.5523 16 31 16.4477 31 17V18C31 18.5523 30.5523 19 30 19H13C12.4477 19 12 18.5523 12 18V17C12 16.4477 12.4477 16 13 16Z" fill="#EAEDFF"/>
  <path fill-rule="evenodd" clip-rule="evenodd" d="M11 18H32L30 31H13L11 18Z" fill="#EAEDFF"/>
  <circle cx="15" cy="34" r="2" fill="#EAEDFF"/>
  <circle cx="28" cy="34" r="2" fill="#EAEDFF"/>
  <path fill-rule="evenodd" clip-rule="evenodd" d="M16 11C16 10.4477 16.4477 10 17 10H26C26.5523 10 27 10.4477 27 11V12C27 12.5523 26.5523 13 26 13H17C16.4477 13 16 12.5523 16 12V11Z" fill="#EAEDFF"/>
</svg>
